<svg width="1440" height="430" viewBox="0 0 1440 430" fill="none" xmlns="http://www.w3.org/2000/svg">
<mask id="mask0" mask-type="alpha" maskUnits="userSpaceOnUse" x="0" y="0" width="1440" height="430">
<rect width="1440" height="430" fill="#C4C4C4"/>
</mask>
<g mask="url(#mask0)">
<path d="M384.81 376.615L384.812 376.62C390.593 389.467 398.924 399.217 409.793 405.741C420.652 412.259 433.947 415.5 449.573 415.5C479.063 415.5 515.256 401.333 557.418 378.466C599.627 355.574 648.065 323.819 702.083 288.392L702.094 288.384C806.748 219.846 930.567 138.756 1061.63 88.6666C1192.68 38.5825 1330.79 19.5676 1464.1 74.9602L1465.48 75.5357L1466.06 74.151L1474.39 54.1234L1474.96 52.7378L1473.58 52.1622C1333.97 -5.823 1190.97 13.2217 1056.31 64.1442C921.738 115.036 795.323 197.837 688.736 267.65L688.597 267.741C638.071 300.837 591.061 331.629 550.226 354.151C509.319 376.713 474.9 390.803 449.487 390.803C438.043 390.803 429.342 388.669 422.648 384.713C415.969 380.766 411.16 374.929 407.621 367.289C400.487 351.887 398.624 329.445 397.047 301.186L397.037 301.013C395.623 275.643 394.016 246.803 383.552 224.309C378.287 212.991 370.758 203.22 359.85 196.291C348.943 189.363 334.773 185.348 316.345 185.348C296.434 185.348 272.646 191.852 246.93 202.47C221.19 213.097 193.403 227.895 165.461 244.592C109.578 277.983 52.9467 319.048 10.6634 349.734L10.6602 349.736C-7.67288 363.115 -23.5447 374.627 -34.8367 382.215L-36.0822 383.052L-35.2446 384.297L-23.1428 402.287L-22.3038 403.535L-21.0584 402.693C-9.452 394.852 6.66349 383.195 25.2638 369.719L25.2644 369.719C63.8213 341.753 118.925 301.8 173.308 268.837C200.499 252.355 227.479 237.641 252.096 227.052C276.745 216.448 298.882 210.044 316.432 210.044C328.703 210.044 338.041 212.245 345.224 216.336C352.387 220.415 357.529 226.443 361.301 234.321C368.906 250.204 370.851 273.36 372.472 302.563C373.834 328.326 375.414 355.548 384.81 376.615Z" fill="#FFD050" stroke="#FFD050" stroke-width="3"/>
</g>
</svg>
